<svg version="1.1" id="Layer_1" xmlns="http://www.w3.org/2000/svg" xmlns:xlink="http://www.w3.org/1999/xlink" x="0px" y="0px"
	 width="100%" viewBox="0 0 90 84" enable-background="new 0 0 90 84" xml:space="preserve">
<path fill="#FAFAFA" opacity="1.000000" stroke="none" 
	d="
M63.000000,85.000000 
	C42.000000,85.000000 21.500000,85.000000 1.000000,85.000000 
	C1.000000,57.000000 1.000000,29.000000 1.000000,1.000000 
	C31.000000,1.000000 61.000000,1.000000 91.000000,1.000000 
	C91.000000,29.000000 91.000000,57.000000 91.000000,85.000000 
	C81.833336,85.000000 72.666664,85.000000 63.000000,85.000000 
M19.850538,12.200087 
	C19.202101,11.766078 18.553663,11.332069 18.118519,11.040821 
	C17.200092,12.652696 16.260027,14.008021 15.634124,15.495539 
	C15.145787,16.656118 15.047875,17.980976 14.788854,19.097826 
	C14.788854,19.097826 14.661502,19.144320 14.325423,19.663603 
	C13.243084,20.219336 12.160744,20.775068 11.091681,21.323982 
	C11.484834,22.308329 11.823361,23.155909 12.239130,24.727356 
	C10.965639,28.602551 9.692149,32.477745 8.333459,36.612198 
	C9.322246,37.992382 10.688455,39.899384 12.132078,41.914444 
	C11.360631,42.329575 10.311839,42.893948 9.889359,43.121292 
	C10.591312,43.731163 11.340160,44.381771 12.074641,45.019901 
	C10.212619,47.193958 9.055788,48.544651 7.497537,50.364033 
	C12.921214,51.445766 10.747773,54.315342 9.275711,57.321289 
	C10.517727,57.602512 11.581431,57.843357 12.740108,58.877598 
	C12.443593,60.840084 12.147079,62.802570 11.796462,65.123138 
	C12.454856,65.366318 13.591122,65.785995 14.706162,66.460587 
	C14.706162,66.460587 14.897822,66.629982 14.262037,67.033691 
	C15.396521,69.636856 16.531004,72.240013 17.690996,74.901703 
	C17.730433,74.905106 17.930387,74.987228 18.051779,74.922356 
	C18.885918,74.476494 19.703617,73.999886 20.512667,73.541084 
	C23.488836,76.674889 23.488836,76.674889 25.836752,75.759659 
	C25.836752,75.759659 26.062687,75.991913 26.076525,76.557037 
	C26.436680,76.387360 26.796835,76.217682 27.553543,75.995735 
	C27.855665,75.937485 28.030098,75.756302 28.655739,75.294029 
	C29.054873,75.300308 29.454004,75.306580 29.880867,75.162437 
	C29.880867,75.162437 29.730810,75.192062 29.863140,75.870857 
	C31.038269,77.246521 32.213398,78.622177 33.334476,79.934563 
	C34.283367,78.911049 34.884277,78.262878 35.522514,77.574448 
	C36.177971,79.077583 36.748371,80.385666 37.923576,83.080727 
	C38.863609,80.336876 39.443069,78.645493 40.426884,76.577049 
	C42.892174,76.815102 45.357464,77.053154 48.211300,77.861763 
	C49.674488,78.768440 51.137680,79.675110 51.853798,80.118851 
	C53.873283,79.029167 55.556530,78.120911 57.120316,77.194412 
	C57.120316,77.194412 57.163750,77.307175 57.709824,77.587997 
	C61.206425,79.608231 59.419331,75.989105 60.130070,75.163795 
	C60.130070,75.163795 60.165848,75.303154 60.725029,75.545586 
	C61.311943,76.303406 61.898853,77.061218 62.537807,77.886230 
	C64.974548,76.358353 67.405670,74.834015 69.879753,73.191002 
	C69.879753,73.191002 69.754875,73.209267 70.078201,73.770081 
	C70.866196,74.134445 71.654198,74.498817 72.442192,74.863182 
	C72.304916,74.227051 72.167648,73.590927 72.239914,72.687103 
	C72.239914,72.687103 72.110710,72.372658 72.726456,72.183510 
	C73.127159,71.785652 73.527855,71.387787 74.162674,70.740601 
	C74.162674,70.740601 74.092377,70.405899 74.799377,70.171600 
	C74.930183,69.035339 75.060989,67.899078 75.180809,66.919456 
	C75.180809,66.919456 75.332695,66.879623 75.656944,66.343758 
	C76.769760,65.759254 77.882568,65.174759 79.687515,64.226715 
	C78.070641,63.646915 77.087746,63.294453 76.208519,62.278820 
	C77.732040,55.407612 82.191177,48.765827 78.484947,42.360882 
	C79.537338,39.445595 81.455162,36.872547 80.988525,34.849491 
	C80.046425,30.765100 77.808769,26.979538 76.807182,23.007454 
	C77.502464,22.691729 78.197754,22.376001 78.530556,22.224878 
	C76.242325,18.422142 74.074577,14.819629 71.826340,11.083346 
	C71.242538,11.436213 70.426796,11.929274 70.762047,11.726641 
	C67.655930,12.898216 67.840363,6.502386 63.927944,10.739548 
	C57.794739,9.204538 51.661537,7.669529 45.531502,6.135314 
	C44.891541,7.451221 44.260136,8.749537 43.924553,9.439575 
	C41.841209,7.723123 39.639977,5.909538 37.409588,4.071938 
	C36.621567,5.764706 35.943817,7.220593 35.410122,8.367030 
	C33.692535,8.367030 31.229860,8.021774 31.102854,8.420500 
	C29.848854,12.357331 26.926624,10.633668 24.472126,10.817563 
	C23.571241,10.885057 22.750135,12.017366 21.328659,12.724691 
	C20.951078,12.741290 20.573500,12.757889 19.850538,12.200087 
z"/>
<path fill="#004537" opacity="1.000000" stroke="none" 
	d="
M47.822754,77.291214 
	C45.357464,77.053154 42.892174,76.815102 39.923664,76.896240 
	C38.962048,77.347725 38.121559,77.641304 38.099640,77.589363 
	C36.289700,73.301575 33.025341,74.201958 29.730810,75.192062 
	C29.730810,75.192062 29.880867,75.162437 29.810596,74.934265 
	C29.299217,74.382782 28.858112,74.059479 28.417007,73.736168 
	C28.303617,74.308174 28.190229,74.880180 28.076841,75.452187 
	C28.030098,75.756302 27.855665,75.937485 27.081898,75.999290 
	C26.427731,75.999207 26.245209,75.995560 26.062687,75.991913 
	C26.062687,75.991913 25.836752,75.759659 25.888971,75.283325 
	C25.862246,74.193954 25.943348,73.128723 25.680372,73.035652 
	C21.652597,71.610115 17.778362,69.973053 14.897822,66.629982 
	C14.897822,66.629982 14.706162,66.460587 15.055086,66.249878 
	C17.913382,62.198292 13.591350,60.726635 12.645135,58.084206 
	C11.581431,57.843357 10.517727,57.602512 9.275711,57.321289 
	C10.747773,54.315342 12.921214,51.445766 7.497537,50.364033 
	C9.055788,48.544651 10.212619,47.193958 12.074641,45.019901 
	C11.340160,44.381771 10.591312,43.731163 9.889359,43.121292 
	C10.311839,42.893948 11.360631,42.329575 12.132078,41.914444 
	C10.688455,39.899384 9.322246,37.992382 8.333459,36.612198 
	C9.692149,32.477745 10.965639,28.602551 12.502844,24.366356 
	C17.071753,21.154251 17.071753,21.154251 14.661502,19.144320 
	C14.661502,19.144320 14.788854,19.097826 14.875139,18.847404 
	C16.304722,17.735121 17.648022,16.873260 19.082623,16.179543 
	C19.448114,16.230240 19.722300,16.112795 20.339832,15.993122 
	C21.548029,15.875273 22.412880,15.759649 23.448114,15.621247 
	C22.796103,14.381635 22.344370,13.522796 21.892639,12.663956 
	C22.750135,12.017366 23.571241,10.885057 24.472126,10.817563 
	C26.926624,10.633668 29.848854,12.357331 31.102854,8.420500 
	C31.229860,8.021774 33.692535,8.367030 35.410122,8.367030 
	C35.943817,7.220593 36.621567,5.764706 37.409588,4.071938 
	C39.639977,5.909538 41.841209,7.723123 43.924553,9.439575 
	C44.260136,8.749537 44.891541,7.451221 45.531502,6.135314 
	C51.661537,7.669529 57.794739,9.204538 64.646378,10.946436 
	C66.245125,12.436984 67.125443,13.720643 67.872955,15.060493 
	C67.825279,15.075870 67.910393,15.035057 68.322037,15.028924 
	C71.497330,14.994899 72.491005,16.710018 73.227768,19.199675 
	C73.656113,20.647129 75.111961,21.790516 76.105469,23.070721 
	C77.808769,26.979538 80.046425,30.765100 80.988525,34.849491 
	C81.455162,36.872547 79.537338,39.445595 78.484947,42.360882 
	C82.191177,48.765827 77.732040,55.407612 75.786804,62.627865 
	C74.638565,63.417736 73.912041,63.858559 73.185524,64.299385 
	C73.901245,65.159470 74.616966,66.019547 75.332695,66.879623 
	C75.332695,66.879623 75.180809,66.919456 75.118996,67.162888 
	C74.709908,67.930267 74.362633,68.454208 73.888611,68.774010 
	C73.404549,68.588127 73.047226,68.606377 72.689903,68.624634 
	C73.118210,68.758179 73.546516,68.891716 74.004761,69.370369 
	C74.053925,69.945625 74.073151,70.175758 74.092377,70.405899 
	C74.092377,70.405899 74.162674,70.740601 73.727020,70.864838 
	C72.866692,70.985336 72.442009,70.981590 71.957001,70.839218 
	C71.804497,70.654579 71.712326,70.608566 71.620148,70.562561 
	C71.738823,70.714699 71.857506,70.866844 72.002014,71.358170 
	C72.055473,71.922462 72.083092,72.147560 72.110710,72.372658 
	C72.110710,72.372658 72.239914,72.687103 71.753860,72.844116 
	C70.763496,73.070518 70.259186,73.139893 69.754875,73.209267 
	C69.754875,73.209267 69.879753,73.191002 69.883011,72.916489 
	C69.603645,71.948250 69.321014,71.254524 68.776695,69.918457 
	C68.192726,71.475418 67.872192,72.330040 67.545494,73.201065 
	C63.978878,70.430428 61.716103,71.090538 60.165848,75.303154 
	C60.165848,75.303154 60.130070,75.163795 59.809784,75.126801 
	C58.714249,75.828926 57.938999,76.568054 57.163750,77.307175 
	C57.163750,77.307175 57.120316,77.194412 56.841187,77.099670 
	C55.845028,76.041061 55.127991,75.077187 55.031475,74.947449 
	C52.444115,74.947449 50.351017,74.947449 48.183983,74.947449 
	C48.066078,75.712440 47.944416,76.501823 47.822754,77.291214 
z"/>
<path fill="#002C2A" opacity="1.000000" stroke="none" 
	d="
M76.456322,23.039089 
	C75.111961,21.790516 73.656113,20.647129 73.227768,19.199675 
	C72.491005,16.710018 71.497330,14.994899 68.324280,15.031796 
	C68.000000,14.999987 68.005753,15.004304 68.005753,15.004303 
	C67.125443,13.720643 66.245125,12.436984 65.020294,11.019904 
	C67.840363,6.502386 67.655930,12.898216 70.762047,11.726641 
	C70.426796,11.929274 71.242538,11.436213 71.826340,11.083346 
	C74.074577,14.819629 76.242325,18.422142 78.530556,22.224878 
	C78.197754,22.376001 77.502464,22.691729 76.456322,23.039089 
z"/>
<path fill="#002828" opacity="1.000000" stroke="none" 
	d="
M14.579929,66.831833 
	C17.778362,69.973053 21.652597,71.610115 25.680372,73.035652 
	C25.943348,73.128723 25.862246,74.193954 25.932697,75.127327 
	C23.488836,76.674889 23.488836,76.674889 20.512667,73.541084 
	C19.703617,73.999886 18.885918,74.476494 18.051779,74.922356 
	C17.930387,74.987228 17.730433,74.905106 17.690996,74.901703 
	C16.531004,72.240013 15.396521,69.636856 14.579929,66.831833 
z"/>
<path fill="#002627" opacity="1.000000" stroke="none" 
	d="
M60.445438,75.424370 
	C61.716103,71.090538 63.978878,70.430428 67.545494,73.201065 
	C67.872192,72.330040 68.192726,71.475418 68.776695,69.918457 
	C69.321014,71.254524 69.603645,71.948250 69.861526,72.975822 
	C67.405670,74.834015 64.974548,76.358353 62.537807,77.886230 
	C61.898853,77.061218 61.311943,76.303406 60.445438,75.424370 
z"/>
<path fill="#002828" opacity="1.000000" stroke="none" 
	d="
M29.796974,75.531464 
	C33.025341,74.201958 36.289700,73.301575 38.099640,77.589363 
	C38.121559,77.641304 38.962048,77.347725 39.721489,77.084778 
	C39.443069,78.645493 38.863609,80.336876 37.923576,83.080727 
	C36.748371,80.385666 36.177971,79.077583 35.522514,77.574448 
	C34.884277,78.262878 34.283367,78.911049 33.334476,79.934563 
	C32.213398,78.622177 31.038269,77.246521 29.796974,75.531464 
z"/>
<path fill="#002627" opacity="1.000000" stroke="none" 
	d="
M48.017029,77.576492 
	C47.944416,76.501823 48.066078,75.712440 48.183983,74.947449 
	C50.351017,74.947449 52.444115,74.947449 55.031475,74.947449 
	C55.127991,75.077187 55.845028,76.041061 56.900917,77.108795 
	C55.556530,78.120911 53.873283,79.029167 51.853798,80.118851 
	C51.137680,79.675110 49.674488,78.768440 48.017029,77.576492 
z"/>
<path fill="#002828" opacity="1.000000" stroke="none" 
	d="
M12.692621,58.480904 
	C13.591350,60.726635 17.913382,62.198292 15.065699,66.122421 
	C13.591122,65.785995 12.454856,65.366318 11.796462,65.123138 
	C12.147079,62.802570 12.443593,60.840084 12.692621,58.480904 
z"/>
<path fill="#002E2B" opacity="1.000000" stroke="none" 
	d="
M14.493463,19.403961 
	C17.071753,21.154251 17.071753,21.154251 12.464223,24.004423 
	C11.823361,23.155909 11.484834,22.308329 11.091681,21.323982 
	C12.160744,20.775068 13.243084,20.219336 14.493463,19.403961 
z"/>
<path fill="#002A29" opacity="1.000000" stroke="none" 
	d="
M75.494820,66.611694 
	C74.616966,66.019547 73.901245,65.159470 73.185524,64.299385 
	C73.912041,63.858559 74.638565,63.417736 75.734970,62.959450 
	C77.087746,63.294453 78.070641,63.646915 79.687515,64.226715 
	C77.882568,65.174759 76.769760,65.759254 75.494820,66.611694 
z"/>
<path fill="#002E2B" opacity="1.000000" stroke="none" 
	d="
M18.991320,16.011400 
	C17.648022,16.873260 16.304722,17.735121 14.868946,18.914907 
	C15.047875,17.980976 15.145787,16.656118 15.634124,15.495539 
	C16.260027,14.008021 17.200092,12.652696 18.118519,11.040821 
	C18.553663,11.332069 19.202101,11.766078 19.963428,12.561627 
	C20.076317,12.923168 19.959805,13.074278 19.703005,13.269961 
	C19.301426,14.306482 19.156649,15.147320 19.006851,15.993211 
	C19.001831,15.998265 18.991320,16.011400 18.991320,16.011400 
z"/>
<path fill="#002627" opacity="1.000000" stroke="none" 
	d="
M57.436787,77.447586 
	C57.938999,76.568054 58.714249,75.828926 59.880745,75.138611 
	C59.419331,75.989105 61.206425,79.608231 57.436787,77.447586 
z"/>
<path fill="#002E2B" opacity="1.000000" stroke="none" 
	d="
M21.610649,12.694324 
	C22.344370,13.522796 22.796103,14.381635 23.448114,15.621247 
	C22.412880,15.759649 21.548029,15.875273 20.341770,15.995639 
	C20.000364,16.000381 20.004862,16.004950 20.006138,15.638198 
	C19.991543,14.539057 19.975674,13.806667 19.959805,13.074278 
	C19.959805,13.074278 20.076317,12.923168 20.136118,12.848827 
	C20.573500,12.757889 20.951078,12.741290 21.610649,12.694324 
z"/>
<path fill="#002A29" opacity="1.000000" stroke="none" 
	d="
M74.015358,68.978142 
	C74.362633,68.454208 74.709908,67.930267 75.124496,67.084572 
	C75.060989,67.899078 74.930183,69.035339 74.445877,70.288750 
	C74.073151,70.175758 74.053925,69.945625 74.015831,69.359192 
	C73.996971,69.002892 74.015358,68.978142 74.015358,68.978142 
z"/>
<path fill="#002A29" opacity="1.000000" stroke="none" 
	d="
M69.916534,73.489670 
	C70.259186,73.139893 70.763496,73.070518 71.649094,72.977966 
	C72.167648,73.590927 72.304916,74.227051 72.442192,74.863182 
	C71.654198,74.498817 70.866196,74.134445 69.916534,73.489670 
z"/>
<path fill="#002828" opacity="1.000000" stroke="none" 
	d="
M28.366291,75.373108 
	C28.190229,74.880180 28.303617,74.308174 28.417007,73.736168 
	C28.858112,74.059479 29.299217,74.382782 29.796730,75.009468 
	C29.454004,75.306580 29.054873,75.300308 28.366291,75.373108 
z"/>
<path fill="#002A29" opacity="1.000000" stroke="none" 
	d="
M72.418579,72.278084 
	C72.083092,72.147560 72.055473,71.922462 72.013397,71.348907 
	C71.998947,71.000443 72.017326,70.977852 72.017326,70.977852 
	C72.442009,70.981590 72.866692,70.985336 73.609962,70.989502 
	C73.527855,71.387787 73.127159,71.785652 72.418579,72.278084 
z"/>
<path fill="#002828" opacity="1.000000" stroke="none" 
	d="
M26.069607,76.274475 
	C26.245209,75.995560 26.427731,75.999207 26.883621,76.025421 
	C26.796835,76.217682 26.436680,76.387360 26.069607,76.274475 
z"/>
<path fill="#002A29" opacity="1.000000" stroke="none" 
	d="
M73.985901,69.014069 
	C73.546516,68.891716 73.118210,68.758179 72.689903,68.624634 
	C73.047226,68.606377 73.404549,68.588127 73.888611,68.774010 
	C74.015358,68.978142 73.996971,69.002892 73.985901,69.014069 
z"/>
<path fill="#002A29" opacity="1.000000" stroke="none" 
	d="
M71.987564,71.009712 
	C71.857506,70.866844 71.738823,70.714699 71.620148,70.562561 
	C71.712326,70.608566 71.804497,70.654579 71.957001,70.839218 
	C72.017326,70.977852 71.998947,71.000443 71.987564,71.009712 
z"/>
<path fill="#002E2B" opacity="1.000000" stroke="none" 
	d="
M19.998425,15.997866 
	C19.722300,16.112795 19.448114,16.230240 19.082623,16.179543 
	C18.991320,16.011400 19.001831,15.998265 19.255060,15.994957 
	C19.508289,15.991650 20.004862,16.004950 20.004862,16.004950 
	C20.004862,16.004950 20.000364,16.000381 19.998425,15.997866 
z"/>
<path fill="#002C2A" opacity="1.000000" stroke="none" 
	d="
M67.997757,14.997115 
	C67.910393,15.035057 67.825279,15.075870 67.872955,15.060493 
	C68.005753,15.004304 68.000000,14.999987 67.997757,14.997115 
z"/>
<path fill="#004537" opacity="1.000000" stroke="none" 
	d="
M20.006138,15.638198 
	C20.004862,16.004950 19.508289,15.991650 19.260080,15.989902 
	C19.156649,15.147320 19.301426,14.306482 19.703005,13.269961 
	C19.975674,13.806667 19.991543,14.539057 20.006138,15.638198 
z"/>
</svg>